<svg width="10" height="8" viewBox="0 0 10 8" fill="none" xmlns="http://www.w3.org/2000/svg">
<path fill-rule="evenodd" clip-rule="evenodd" d="M6.63128 7.42437C6.63128 7.74195 6.37548 8.00004 6.06073 8.00004H4.76842C2.96451 8.00004 1.49913 6.53112 1.47251 4.71775L0.973273 5.22146C0.749805 5.44597 0.390355 5.44597 0.166887 5.22146C-0.0556292 4.99791 -0.0556292 4.63236 0.166887 4.40784L1.63512 2.9274C1.85763 2.70193 2.21803 2.70193 2.4415 2.9274L3.90973 4.40784C4.13225 4.63236 4.13225 4.99791 3.90973 5.22146C3.79847 5.33372 3.65203 5.39033 3.50654 5.39033C3.36105 5.39033 3.2146 5.33372 3.10335 5.22146L2.61457 4.7283C2.64595 5.90172 3.59783 6.8487 4.76842 6.8487H6.06073C6.37548 6.8487 6.63128 7.10679 6.63128 7.42437Z" fill="#C4C4C4"/>
<path fill-rule="evenodd" clip-rule="evenodd" d="M9.83263 2.77764C10.0561 3.00216 10.0561 3.36675 9.83263 3.59127L8.36439 5.07268C8.25313 5.18494 8.10763 5.24154 7.96119 5.24154C7.81569 5.24154 7.6702 5.18494 7.55894 5.07268L6.0907 3.59127C5.86723 3.36675 5.86723 3.00216 6.0907 2.77764C6.31322 2.55313 6.67362 2.55313 6.89614 2.77764L7.38492 3.27081C7.35354 2.09739 6.40165 1.1504 5.23105 1.1504H3.93873C3.62397 1.1504 3.36816 0.8923 3.36816 0.574718C3.36816 0.257136 3.62397 0 3.93873 0H5.23105C7.03498 0 8.50037 1.46798 8.527 3.28232L9.02719 2.77764C9.24971 2.55313 9.61011 2.55313 9.83263 2.77764Z" fill="#C4C4C4"/>
</svg>
